<?xml version="1.0" encoding="UTF-8"?>
<!-- Generator: visioncortex VTracer 0.6.12 -->
<svg version="1.1" xmlns="http://www.w3.org/2000/svg" width="512" height="512">
<path d="M0,0 L512,0 L512,512 L0,512 Z " fill="#FEFEFE" transform="translate(0,0)"/>
<path d="M0,0 L201,0 L209,2 L221,7 L230,13 L239,21 L246,31 L251,41 L254,52 L254,254 L250,268 L244,279 L235,289 L227,296 L213,303 L208,305 L202,306 L-1,306 L-14,302 L-25,296 L-35,287 L-42,279 L-49,265 L-52,254 L-52,52 L-48,39 L-42,28 L-35,19 L-26,11 L-16,5 Z " fill="#0B203D" transform="translate(155,103)"/>
<path d="M0,0 L7,1 L10,5 L13,17 L18,26 L28,39 L41,52 L51,59 L63,65 L70,67 L73,70 L73,76 L68,81 L59,88 L53,96 L46,110 L40,131 L37,140 L32,149 L24,157 L13,162 L-1,165 L-25,168 L-41,172 L-60,179 L-76,188 L-84,192 L-93,192 L-100,189 L-108,182 L-114,175 L-116,170 L-116,160 L-109,148 L-103,138 L-97,123 L-94,115 L-90,93 L-87,70 L-83,58 L-77,49 L-70,43 L-59,38 L-40,32 L-24,25 L-13,17 L-6,8 L-2,2 Z " fill="#0C213D" transform="translate(278,160)"/>
<path d="M0,0 L7,1 L10,5 L13,17 L18,26 L28,39 L41,52 L51,59 L63,65 L70,67 L73,70 L73,76 L68,81 L59,88 L53,96 L46,110 L40,131 L37,140 L32,149 L24,157 L13,162 L-1,165 L-25,168 L-41,172 L-60,179 L-76,188 L-84,192 L-93,192 L-100,189 L-108,182 L-114,175 L-116,170 L-116,160 L-109,148 L-103,138 L-97,123 L-94,115 L-90,93 L-87,70 L-83,58 L-77,49 L-70,43 L-59,38 L-40,32 L-24,25 L-13,17 L-6,8 L-2,2 Z M-1,23 L-1,25 L-5,27 L-13,34 L-29,42 L-36,45 L-57,51 L-66,57 L-70,62 L-73,70 L-75,79 L-78,103 L-82,121 L-90,141 L-98,156 L-103,163 L-103,168 L-100,168 L-45,113 L-39,104 L-33,90 L-28,86 L-17,86 L-11,90 L-9,94 L-9,103 L-13,109 L-17,112 L-27,115 L-35,121 L-69,155 L-74,160 L-83,168 L-83,170 L-87,172 L-91,177 L-91,178 L-85,178 L-69,169 L-53,162 L-37,157 L-13,153 L3,151 L15,147 L20,142 L24,137 L28,126 L33,107 L41,90 L51,77 L52,75 L41,68 L30,59 L20,50 L9,36 L3,26 L1,23 Z " fill="#F7F9F9" transform="translate(278,160)"/>
<path d="M0,0 L4,4 L3,9 L-5,17 L-7,16 L-7,11 Z " fill="#213145" transform="translate(182,312)"/>
<path d="M0,0 L4,1 L0,5 L-6,5 L-5,3 Z " fill="#0E1E30" transform="translate(193,333)"/>
<path d="M0,0 L3,1 L-2,7 L-5,6 Z " fill="#1F2E46" transform="translate(337,247)"/>
<path d="M0,0 L2,0 L0,4 L-2,6 L-5,5 Z " fill="#263449" transform="translate(124,118)"/>
</svg>
